<svg width="32" height="32" viewBox="0 0 32 32" fill="none" xmlns="http://www.w3.org/2000/svg">
<path d="M21.6686 28V25.3333C21.6686 23.9188 21.1067 22.5623 20.1065 21.5621C19.1063 20.5619 17.7498 20 16.3353 20H8.33529C6.9208 20 5.56424 20.5619 4.56405 21.5621C3.56386 22.5623 3.00195 23.9188 3.00195 25.3333V28" stroke="#999999" stroke-width="2.5" stroke-linecap="round" stroke-linejoin="round"/>
<path d="M21.666 4.1709C22.8097 4.46739 23.8225 5.13525 24.5456 6.06965C25.2686 7.00405 25.6609 8.15208 25.6609 9.33357C25.6609 10.515 25.2686 11.6631 24.5456 12.5975C23.8225 13.5319 22.8097 14.1997 21.666 14.4962" stroke="#999999" stroke-width="2.5" stroke-linecap="round" stroke-linejoin="round"/>
<path d="M29.666 28.0005V25.3338C29.6651 24.1521 29.2718 23.0042 28.5478 22.0702C27.8238 21.1363 26.8102 20.4693 25.666 20.1738" stroke="#999999" stroke-width="2.5" stroke-linecap="round" stroke-linejoin="round"/>
<path d="M12.3353 14.6667C15.2808 14.6667 17.6686 12.2789 17.6686 9.33333C17.6686 6.38781 15.2808 4 12.3353 4C9.38977 4 7.00195 6.38781 7.00195 9.33333C7.00195 12.2789 9.38977 14.6667 12.3353 14.6667Z" stroke="#999999" stroke-width="2.5" stroke-linecap="round" stroke-linejoin="round"/>
</svg>
