<svg width="32" height="32" viewBox="0 0 32 32" fill="none" xmlns="http://www.w3.org/2000/svg">
<path d="M16 21.3333H16.0133" stroke="#999999" stroke-width="2.5" stroke-linecap="round" stroke-linejoin="round"/>
<path d="M21.333 21.3333H21.3463" stroke="#999999" stroke-width="2.5" stroke-linecap="round" stroke-linejoin="round"/>
<path d="M4 25.3333C4 26.0406 4.28095 26.7189 4.78105 27.219C5.28115 27.719 5.95942 28 6.66667 28H25.3333C26.0406 28 26.7189 27.719 27.219 27.219C27.719 26.7189 28 26.0406 28 25.3333V11.3333C28.0001 11.2137 27.9681 11.0963 27.9072 10.9934C27.8463 10.8904 27.7589 10.8057 27.6541 10.7482C27.5492 10.6906 27.4308 10.6624 27.3113 10.6663C27.1917 10.6703 27.0755 10.7063 26.9747 10.7707L21.0253 14.5627C20.9245 14.627 20.8083 14.663 20.6887 14.667C20.5692 14.671 20.4508 14.6427 20.3459 14.5852C20.2411 14.5276 20.1537 14.4429 20.0928 14.34C20.0319 14.237 19.9999 14.1196 20 14V11.3333C20.0001 11.2137 19.9681 11.0963 19.9072 10.9934C19.8463 10.8904 19.7589 10.8057 19.6541 10.7482C19.5492 10.6906 19.4308 10.6624 19.3113 10.6663C19.1917 10.6703 19.0755 10.7063 18.9747 10.7707L13.0267 14.5627C12.9258 14.6274 12.8094 14.6637 12.6897 14.6678C12.57 14.672 12.4513 14.6438 12.3463 14.5862C12.2412 14.5286 12.1536 14.4438 12.0927 14.3406C12.0317 14.2375 11.9997 14.1198 12 14V6.66667C12 5.95942 11.719 5.28115 11.219 4.78105C10.7189 4.28095 10.0406 4 9.33333 4H6.66667C5.95942 4 5.28115 4.28095 4.78105 4.78105C4.28095 5.28115 4 5.95942 4 6.66667V25.3333Z" stroke="#999999" stroke-width="2.5" stroke-linecap="round" stroke-linejoin="round"/>
<path d="M10.667 21.3333H10.6803" stroke="#999999" stroke-width="2.5" stroke-linecap="round" stroke-linejoin="round"/>
</svg>
