<svg width="1704" height="213" viewBox="0 0 1704 213" fill="none" xmlns="http://www.w3.org/2000/svg">
<g clip-path="url(#clip0_4690_1175)">
<path d="M1671.99 104.808C1671.99 95.7 1669.74 89.3109 1665.26 85.6406C1660.91 81.8343 1655.2 79.9312 1648.13 79.9312C1643.92 79.9312 1639.97 80.8148 1636.3 82.582C1632.77 84.3492 1629.85 86.932 1627.54 90.3304C1625.36 93.5929 1624.27 97.5351 1624.27 102.157L1617.14 81.3586C1618.63 75.7851 1621.21 70.6875 1624.88 66.0656C1628.56 61.4437 1633.18 57.7734 1638.75 55.0547C1644.46 52.3359 1650.71 50.9766 1657.51 50.9766C1665.8 50.9766 1673.48 53.1516 1680.55 57.5016C1687.62 61.7156 1693.26 67.8328 1697.48 75.8531C1701.83 83.7375 1704 92.9812 1704 103.584V177.806H1671.99V104.808ZM1624.27 177.806H1592.26V54.0351H1622.23L1624.27 77.6883V177.806Z" fill="#EDEDED"/>
<path d="M1516.39 180.865C1505.65 180.865 1495.86 178.622 1487.03 174.136C1478.19 169.786 1471.12 163.261 1465.82 154.561C1460.65 145.861 1458.07 135.326 1458.07 122.955V108.682C1458.07 96.3117 1460.65 85.8445 1465.82 77.2804C1471.12 68.5805 1478.19 62.0555 1487.03 57.7055C1495.86 53.2195 1505.65 50.9766 1516.39 50.9766C1527.13 50.9766 1536.92 53.2195 1545.75 57.7055C1554.72 62.0555 1561.79 68.5805 1566.96 77.2804C1572.26 85.8445 1574.91 96.3117 1574.91 108.682V122.955C1574.91 135.326 1572.26 145.861 1566.96 154.561C1561.79 163.261 1554.72 169.786 1545.75 174.136C1536.92 178.622 1527.13 180.865 1516.39 180.865ZM1516.39 151.706C1521.28 151.706 1525.7 150.687 1529.64 148.648C1533.72 146.473 1536.92 143.21 1539.23 138.86C1541.67 134.374 1542.9 128.869 1542.9 122.344V109.498C1542.9 102.973 1541.67 97.5351 1539.23 93.1851C1536.92 88.6992 1533.72 85.4367 1529.64 83.3976C1525.7 81.2226 1521.28 80.1351 1516.39 80.1351C1511.63 80.1351 1507.21 81.2226 1503.13 83.3976C1499.19 85.4367 1496 88.6992 1493.55 93.1851C1491.24 97.5351 1490.09 102.973 1490.09 109.498V122.344C1490.09 128.869 1491.24 134.374 1493.55 138.86C1496 143.21 1499.19 146.473 1503.13 148.648C1507.21 150.687 1511.63 151.706 1516.39 151.706Z" fill="#EDEDED"/>
<path d="M1409.8 177.806V54.0351H1441.81V177.806H1409.8ZM1425.7 35.8875C1420.67 35.8875 1416.39 34.1883 1412.85 30.7898C1409.46 27.2554 1407.76 22.9734 1407.76 17.9437C1407.76 12.9141 1409.46 8.69999 1412.85 5.30156C1416.39 1.76719 1420.67 0 1425.7 0C1430.73 0 1434.94 1.76719 1438.34 5.30156C1441.88 8.69999 1443.64 12.9141 1443.64 17.9437C1443.64 22.9734 1441.88 27.2554 1438.34 30.7898C1434.94 34.1883 1430.73 35.8875 1425.7 35.8875Z" fill="#EDEDED"/>
<path d="M1368.78 180.865C1356.69 180.865 1347.17 177.738 1340.24 171.485C1333.44 165.232 1330.04 156.26 1330.04 144.569V22.4297H1362.06V139.472C1362.06 143.958 1363.01 147.152 1364.91 149.055C1366.81 150.823 1369.74 151.706 1373.68 151.706C1376.67 151.706 1379.39 151.434 1381.83 150.891C1384.28 150.347 1386.93 149.599 1389.79 148.648L1396.52 175.359C1392.85 177.126 1388.5 178.486 1383.47 179.437C1378.44 180.389 1373.54 180.865 1368.78 180.865ZM1311.28 83.1937V54.0351H1390.6V83.1937H1311.28Z" fill="#EDEDED"/>
<path d="M1274.57 177.806L1272.53 155.988V100.118C1272.53 94.2726 1270.63 89.5148 1266.82 85.8445C1263.02 82.0382 1257.44 80.1351 1250.1 80.1351C1244.94 80.1351 1240.45 81.2906 1236.64 83.6015C1232.84 85.7765 1229.78 89.039 1227.47 93.389L1198.92 81.3586C1203.95 72.3867 1211.22 65.114 1220.74 59.5406C1230.26 53.8312 1240.79 50.9766 1252.34 50.9766C1262.13 50.9766 1270.9 52.8797 1278.65 56.6859C1286.53 60.4922 1292.72 66.0656 1297.2 73.4062C1301.83 80.6109 1304.14 89.175 1304.14 99.0984V177.806H1274.57ZM1233.18 180.865C1225.97 180.865 1219.38 179.098 1213.4 175.563C1207.55 172.165 1202.93 167.407 1199.53 161.29C1196.13 155.173 1194.44 148.172 1194.44 140.287C1194.44 129.005 1198.31 119.829 1206.06 112.76C1213.94 105.555 1225.09 101.953 1239.5 101.953H1278.85V129.073H1240.11C1235.9 129.073 1232.5 130.092 1229.92 132.131C1227.33 134.17 1226.04 136.957 1226.04 140.491C1226.04 143.89 1227.33 146.609 1229.92 148.648C1232.5 150.551 1235.9 151.502 1240.11 151.502H1247.86C1252.21 151.502 1256.29 150.687 1260.09 149.055C1264.04 147.424 1267.16 145.045 1269.47 141.919C1271.78 138.656 1272.94 134.782 1272.94 130.296L1278.24 148.648C1277.02 155.309 1274.71 161.018 1271.31 165.776C1268.05 170.669 1263.76 174.408 1258.46 176.991C1253.3 179.573 1247.38 180.865 1240.72 180.865H1233.18Z" fill="#EDEDED"/>
<path d="M1143.96 79.7273C1146.13 73.6101 1148.79 68.4445 1151.91 64.2305C1155.04 60.0164 1158.78 56.7539 1163.13 54.443C1167.61 52.132 1172.78 50.9766 1178.62 50.9766C1181.34 50.9766 1184.13 51.2484 1186.98 51.7922C1189.97 52.3359 1192.42 53.0156 1194.32 53.8312L1186.78 82.582C1182.29 80.9508 1177.6 80.1351 1172.71 80.1351C1169.04 80.1351 1165.44 80.8148 1161.9 82.1742C1158.5 83.5336 1155.65 85.8445 1153.34 89.107C1151.03 92.3695 1149.87 96.7195 1149.87 102.157L1143.96 79.7273ZM1117.86 177.806V54.0351H1147.83L1149.87 79.7273V177.806H1117.86Z" fill="#EDEDED"/>
<path d="M1041.99 180.865C1031.25 180.865 1021.46 178.622 1012.63 174.136C1003.79 169.786 996.722 163.261 991.42 154.561C986.254 145.861 983.672 135.326 983.672 122.955V108.682C983.672 96.3117 986.254 85.8445 991.42 77.2804C996.722 68.5805 1003.79 62.0555 1012.63 57.7055C1021.46 53.2195 1031.25 50.9766 1041.99 50.9766C1052.73 50.9766 1062.52 53.2195 1071.35 57.7055C1080.32 62.0555 1087.39 68.5805 1092.56 77.2804C1097.86 85.8445 1100.51 96.3117 1100.51 108.682V122.955C1100.51 135.326 1097.86 145.861 1092.56 154.561C1087.39 163.261 1080.32 169.786 1071.35 174.136C1062.52 178.622 1052.73 180.865 1041.99 180.865ZM1041.99 151.706C1046.88 151.706 1051.3 150.687 1055.24 148.648C1059.32 146.473 1062.52 143.21 1064.83 138.86C1067.27 134.374 1068.5 128.869 1068.5 122.344V109.498C1068.5 102.973 1067.27 97.5351 1064.83 93.1851C1062.52 88.6992 1059.32 85.4367 1055.24 83.3976C1051.3 81.2226 1046.88 80.1351 1041.99 80.1351C1037.23 80.1351 1032.81 81.2226 1028.73 83.3976C1024.79 85.4367 1021.6 88.6992 1019.15 93.1851C1016.84 97.5351 1015.68 102.973 1015.68 109.498V122.344C1015.68 128.869 1016.84 134.374 1019.15 138.86C1021.6 143.21 1024.79 146.473 1028.73 148.648C1032.81 150.687 1037.23 151.706 1041.99 151.706Z" fill="#EDEDED"/>
<path d="M921.814 50.9766C929.971 50.9766 937.855 53.4234 945.468 58.3172C953.216 63.2109 959.469 70.2797 964.227 79.5234C968.985 88.6312 971.364 99.2343 971.364 111.333V121.528C971.364 133.491 968.985 144.026 964.227 153.133C959.469 162.241 953.216 169.242 945.468 174.136C937.855 179.03 929.971 181.476 921.814 181.476C912.978 181.476 904.686 179.03 896.938 174.136C889.189 169.242 882.936 162.309 878.179 153.337C873.557 144.23 871.246 133.626 871.246 121.528V111.333C871.246 99.0984 873.557 88.4273 878.179 79.3195C882.936 70.2117 889.189 63.2109 896.938 58.3172C904.686 53.4234 912.978 50.9766 921.814 50.9766ZM853.506 54.0351H883.684L885.519 75.8531V212.47H853.506V54.0351ZM912.231 80.1351C907.201 80.1351 902.647 81.2906 898.569 83.6015C894.627 85.9125 891.432 89.4468 888.986 94.2046C886.675 98.9625 885.519 104.808 885.519 111.741V120.712C885.519 127.645 886.675 133.491 888.986 138.248C891.432 143.006 894.627 146.541 898.569 148.851C902.647 151.162 907.201 152.318 912.231 152.318C917.396 152.318 922.018 151.162 926.096 148.851C930.175 146.541 933.369 143.074 935.68 138.452C938.127 133.694 939.35 127.781 939.35 120.712V111.741C939.35 104.808 938.127 98.9625 935.68 94.2046C933.369 89.4468 930.175 85.9125 926.096 83.6015C922.018 81.2906 917.396 80.1351 912.231 80.1351Z" fill="#EDEDED"/>
<path d="M792.931 79.7273C795.106 73.6101 797.756 68.4445 800.883 64.2305C804.009 60.0164 807.748 56.7539 812.098 54.443C816.584 52.132 821.749 50.9766 827.595 50.9766C830.313 50.9766 833.1 51.2484 835.955 51.7922C838.945 52.3359 841.392 53.0156 843.295 53.8312L835.751 82.582C831.265 80.9508 826.575 80.1351 821.681 80.1351C818.011 80.1351 814.409 80.8148 810.874 82.1742C807.476 83.5336 804.621 85.8445 802.31 89.107C799.999 92.3695 798.844 96.7195 798.844 102.157L792.931 79.7273ZM766.831 177.806V54.0351H796.805L798.844 79.7273V177.806H766.831Z" fill="#EDEDED"/>
<path d="M690.96 180.865C680.221 180.865 670.434 178.622 661.598 174.136C652.762 169.786 645.693 163.261 640.391 154.561C635.226 145.861 632.643 135.326 632.643 122.955V108.682C632.643 96.3117 635.226 85.8445 640.391 77.2804C645.693 68.5805 652.762 62.0555 661.598 57.7055C670.434 53.2195 680.221 50.9766 690.96 50.9766C701.699 50.9766 711.487 53.2195 720.323 57.7055C729.295 62.0555 736.363 68.5805 741.529 77.2804C746.83 85.8445 749.481 96.3117 749.481 108.682V122.955C749.481 135.326 746.83 145.861 741.529 154.561C736.363 163.261 729.295 169.786 720.323 174.136C711.487 178.622 701.699 180.865 690.96 180.865ZM690.96 151.706C695.854 151.706 700.272 150.687 704.214 148.648C708.292 146.473 711.487 143.21 713.798 138.86C716.245 134.374 717.468 128.869 717.468 122.344V109.498C717.468 102.973 716.245 97.5351 713.798 93.1851C711.487 88.6992 708.292 85.4367 704.214 83.3976C700.272 81.2226 695.854 80.1351 690.96 80.1351C686.202 80.1351 681.784 81.2226 677.706 83.3976C673.764 85.4367 670.57 88.6992 668.123 93.1851C665.812 97.5351 664.656 102.973 664.656 109.498V122.344C664.656 128.869 665.812 134.374 668.123 138.86C670.57 143.21 673.764 146.473 677.706 148.648C681.784 150.687 686.202 151.706 690.96 151.706Z" fill="#EDEDED"/>
<path d="M551.455 180.865C538.269 180.865 526.103 177.942 514.956 172.097C503.945 166.387 495.109 158.095 488.448 147.22C481.923 136.209 478.661 123.227 478.661 108.274V79.7273C478.661 64.9101 481.923 51.996 488.448 40.9851C495.109 29.9742 503.945 21.614 514.956 15.9047C526.103 10.0594 538.269 7.13672 551.455 7.13672C569.399 7.13672 584.488 12.0984 596.722 22.0219C609.093 31.8093 617.317 45.4031 621.395 62.8031L591.013 71.571C588.158 60.0164 583.536 51.3843 577.147 45.675C570.758 39.8297 562.194 36.907 551.455 36.907C543.979 36.907 537.114 38.6062 530.861 42.0047C524.743 45.2672 519.85 50.2289 516.179 56.8898C512.509 63.5507 510.674 71.571 510.674 80.9507V107.051C510.674 116.43 512.509 124.451 516.179 131.112C519.85 137.773 524.743 142.802 530.861 146.201C537.114 149.463 543.979 151.094 551.455 151.094C562.194 151.094 570.758 148.24 577.147 142.53C583.536 136.685 588.158 127.985 591.013 116.43L621.395 125.198C617.317 142.598 609.093 156.192 596.722 165.98C584.488 175.903 569.399 180.865 551.455 180.865Z" fill="#EDEDED"/>
<path d="M378.406 177.806V52.4037L347.82 75.8529L330.081 52.1998L384.523 10.1952H410.42V177.806H378.406Z" fill="#EDEDED"/>
<path d="M301.768 180.865C296.466 180.865 291.912 178.961 288.106 175.155C284.436 171.485 282.601 166.999 282.601 161.697C282.601 156.396 284.436 151.91 288.106 148.24C291.912 144.433 296.466 142.53 301.768 142.53C307.069 142.53 311.555 144.433 315.226 148.24C319.032 151.91 320.935 156.396 320.935 161.697C320.935 166.999 319.032 171.485 315.226 175.155C311.555 178.961 307.069 180.865 301.768 180.865Z" fill="#EDEDED"/>
<path d="M211.78 180.865C201.041 180.865 191.253 178.622 182.418 174.136C173.582 169.786 166.513 163.261 161.211 154.561C156.046 145.861 153.463 135.326 153.463 122.955V108.682C153.463 96.3117 156.046 85.8445 161.211 77.2804C166.513 68.5805 173.582 62.0555 182.418 57.7055C191.253 53.2195 201.041 50.9766 211.78 50.9766C222.519 50.9766 232.307 53.2195 241.143 57.7055C250.114 62.0555 257.183 68.5805 262.349 77.2804C267.65 85.8445 270.301 96.3117 270.301 108.682V122.955C270.301 135.326 267.65 145.861 262.349 154.561C257.183 163.261 250.114 169.786 241.143 174.136C232.307 178.622 222.519 180.865 211.78 180.865ZM211.78 151.706C216.674 151.706 221.092 150.687 225.034 148.648C229.112 146.473 232.307 143.21 234.618 138.86C237.064 134.374 238.288 128.869 238.288 122.344V109.498C238.288 102.973 237.064 97.5351 234.618 93.1851C232.307 88.6992 229.112 85.4367 225.034 83.3976C221.092 81.2226 216.674 80.1351 211.78 80.1351C207.022 80.1351 202.604 81.2226 198.526 83.3976C194.584 85.4367 191.389 88.6992 188.943 93.1851C186.632 97.5351 185.476 102.973 185.476 109.498V122.344C185.476 128.869 186.632 134.374 188.943 138.86C191.389 143.21 194.584 146.473 198.526 148.648C202.604 150.687 207.022 151.706 211.78 151.706Z" fill="#EDEDED"/>
<path d="M0 177.806V10.1952H30.9937L106.643 122.751V10.1952H138.248V177.806H107.255L31.6054 65.2498V177.806H0Z" fill="#EDEDED"/>
</g>
<defs>
<clipPath id="clip0_4690_1175">
<rect width="1704" height="212.47" fill="white"/>
</clipPath>
</defs>
</svg>
